<svg id="レイヤー_5" data-name="レイヤー 5" xmlns="http://www.w3.org/2000/svg" viewBox="0 0 594.6 128.06"><defs><style>.cls-1,.cls-2{fill:#fff;stroke:#231815;stroke-miterlimit:10;}.cls-1{stroke-width:3px;}.cls-2{stroke-width:2px;}</style></defs><title>yubi_logo_modify_20160721</title><path class="cls-1" d="M355.65,65.67a13.47,13.47,0,0,1-13.37,15,13.63,13.63,0,0,1-1.79-.12,10.87,10.87,0,0,0-8.17,2.21A13.4,13.4,0,0,1,324,85.61a13.67,13.67,0,0,1-2.15-.17,1.23,1.23,0,0,0-1.36,1.63,13.38,13.38,0,0,1,.69,4.26v0.1a22.64,22.64,0,0,0,4.42,13.68,13.47,13.47,0,1,1-24.31,8q0-.5,0-1a18,18,0,0,0-4.14-12.39,13.43,13.43,0,0,1-2.47-4.9,1.34,1.34,0,0,0-2.1-.72A13.49,13.49,0,0,1,280.22,96a7.54,7.54,0,0,0-7.51,1.57,13.46,13.46,0,1,1-10.4-23.39,13.63,13.63,0,0,1,4.49.29,11.64,11.64,0,0,0,9.73-2,13.41,13.41,0,0,1,8.06-2.68q0.47,0,.93,0a1.65,1.65,0,0,0,1.8-1.63v0a13.48,13.48,0,0,1,.12-1.76,10.16,10.16,0,0,0-1.53-7.06q-0.26-.38-0.49-0.78a2.58,2.58,0,0,0-2.23-1.3h0a13.4,13.4,0,0,1-2.08-.16,5.46,5.46,0,0,0-4.19,1.06,13.46,13.46,0,0,1-21.57-12.15A13.46,13.46,0,0,1,270.77,34.2,5.6,5.6,0,0,0,275,33.12l0.25-.19a5.42,5.42,0,0,0,1.64-6.79A13.47,13.47,0,0,1,289.15,6.92,13.46,13.46,0,0,1,302.5,21.66a3.93,3.93,0,0,0,2.7,4.17l0.23,0.08a3.86,3.86,0,0,0,4.16-1.08,13.46,13.46,0,1,1,10,22.48,15.35,15.35,0,0,1-2.74-.37,5.22,5.22,0,0,0-6.3,4.44,4.5,4.5,0,0,0,0,.46v0c-0.43,5.37,3.07,10.87,8.08,8A10.87,10.87,0,0,1,324,58.69a13.65,13.65,0,0,1,1.8.12,10.2,10.2,0,0,0,7.89-2A13.46,13.46,0,0,1,355.65,65.67Z"/><path class="cls-1" d="M126,98.83a15.27,15.27,0,0,1-14.23,14.47,15.1,15.1,0,0,1-7.26-1.36,11.5,11.5,0,0,0-9.43.14,15.19,15.19,0,0,1-12,0,12,12,0,0,0-9.47,0,15.26,15.26,0,0,1-11.8,0,11.22,11.22,0,0,0-9.29.12,15.17,15.17,0,0,1-12.56.3,11.14,11.14,0,0,0-8.7.06A15.12,15.12,0,0,1,25,113.78a15.16,15.16,0,0,1,.42-30.31A15.11,15.11,0,0,1,31,84.53a12.52,12.52,0,0,0,9.29,0,15.18,15.18,0,0,1,11.45.12,11.21,11.21,0,0,0,9.29-.11A15.09,15.09,0,0,1,67.69,83a17.58,17.58,0,0,1,2.64.25,4,4,0,0,0,4.31-5.37,15.2,15.2,0,0,1,.22-12.06A3.22,3.22,0,0,0,71,61.44a31.2,31.2,0,0,1-7.35,1.33,15.09,15.09,0,0,1-7-1.68,12.5,12.5,0,0,0-11.49,0,15.16,15.16,0,1,1-.19-27,13.21,13.21,0,0,0,11.86,0,15.17,15.17,0,0,1,13-.27,13.6,13.6,0,0,0,11.86-.29A15.16,15.16,0,0,1,102.11,54,11.67,11.67,0,0,0,102,64.89a15.18,15.18,0,0,1-1.25,16.37,1.88,1.88,0,0,0,1.84,3A48.58,48.58,0,0,1,110.81,83,15.16,15.16,0,0,1,126,98.83Z"/><path class="cls-1" d="M451.55,25.43a15.27,15.27,0,0,1-14.44,14.43,15.11,15.11,0,0,1-7.12-1.4,11.64,11.64,0,0,0-9.74.09,15.19,15.19,0,0,1-11.93.21,11.8,11.8,0,0,0-9.38.33,15.1,15.1,0,0,1-7.07,1.37,15.16,15.16,0,0,1,.73-30.3,15.07,15.07,0,0,1,5.71,1.11,11,11,0,0,0,9-.14,15.18,15.18,0,0,1,13-.2,11.76,11.76,0,0,0,9.81,0A15.17,15.17,0,0,1,451.55,25.43Z"/><path class="cls-1" d="M466.7,59.82A15.15,15.15,0,0,1,442.6,71.37a2.54,2.54,0,0,0-3.35.29,14.9,14.9,0,0,1-3.76,2.84,1.74,1.74,0,0,0-.91,1.27A15.12,15.12,0,0,1,427.92,86a2.45,2.45,0,0,0-1,2.68,15.16,15.16,0,0,1-12,18.69,2.17,2.17,0,0,0-1.78,1.89,15.16,15.16,0,1,1-18.52-16.53,3.53,3.53,0,0,0,2.69-2.84A15.14,15.14,0,0,1,403.6,80a2.22,2.22,0,0,0,.2-3.54,0.51,0.51,0,0,0-.27-0.13,15.08,15.08,0,0,1-8.18-2.39,6.58,6.58,0,0,0-7.58.21,15.15,15.15,0,1,1-1.9-25.2,9,9,0,0,0,9.38-.47,15.15,15.15,0,0,1,16.15-.25,8.75,8.75,0,0,0,9.06,0,15.18,15.18,0,0,1,13.82-1,9.26,9.26,0,0,0,8.83-.64A15.15,15.15,0,0,1,466.7,59.82Z"/><path class="cls-1" d="M591.72,78.88c3.69,8.68-.4,17.09-7.39,20.33a14.52,14.52,0,0,0-7.36,7.23,15.17,15.17,0,0,1-16,9,14.88,14.88,0,0,0-12,3.36,15.45,15.45,0,0,1-16.8,2.36,13.57,13.57,0,0,1-7-7,15.67,15.67,0,0,1,.11-13.42,10.4,10.4,0,0,0-.12-9,15.18,15.18,0,0,1,.37-13.64,9.25,9.25,0,0,0,0-8.76,15.19,15.19,0,0,1,0-14.33,9.43,9.43,0,0,0,.05-8.92,15.64,15.64,0,0,1-.41-13.91,13.64,13.64,0,0,1,7.13-7.09c11.09-4.75,21.76,3.26,21.76,13.76a15.1,15.1,0,0,1-1.9,7.35,8.91,8.91,0,0,0,0,8.6,15.19,15.19,0,0,1,.45,13.83,11.94,11.94,0,0,0,0,10.17,15.1,15.1,0,0,1,1.45,6.48V88a0.12,0.12,0,0,0,.19.1A15.15,15.15,0,0,1,558.36,86a8,8,0,0,0,5.15-5.17c2.57-8,11.67-13.16,21.06-9.13A15.79,15.79,0,0,1,591.72,78.88Z"/><path class="cls-1" d="M514.68,63.9a15,15,0,0,1-5.62,11.7,10.88,10.88,0,0,0-4.2,9.52q0.07,0.74.07,1.5A15,15,0,0,1,493,101.3a2.7,2.7,0,0,0-2.13,2.82v0.13a15,15,0,1,1-18.81-13.77A3.91,3.91,0,0,0,475,86.66v0a15,15,0,0,1,5.64-11.72,10.76,10.76,0,0,0,4.18-9.46,15.18,15.18,0,0,1-.08-1.55,14.91,14.91,0,0,1,2.46-8.23,10.08,10.08,0,0,0,.7-9.84,15,15,0,1,1,26.31,1.31,11.67,11.67,0,0,0-.72,10.78A14.94,14.94,0,0,1,514.68,63.9Z"/><path class="cls-1" d="M239.72,42.74a4.59,4.59,0,0,1,.41,2.21,10,10,0,0,1-8.6,8.71,3.64,3.64,0,0,1-.87,0A15.17,15.17,0,0,1,215.5,68.47h0a7.32,7.32,0,0,0-6,3.08,15.15,15.15,0,0,1-12.35,6.36,15.4,15.4,0,0,1-4.21-.59A7.63,7.63,0,0,0,185.72,79a15.09,15.09,0,0,1-10,3.77h-0.54a2.7,2.7,0,0,0-2.78,2.71v0a15.21,15.21,0,0,1-1.12,5.74,2.9,2.9,0,0,0,3.14,4,8.77,8.77,0,0,1,1.3-.11,15.19,15.19,0,0,1,5.78,1.14,11.66,11.66,0,0,0,8.91,0A14.94,14.94,0,0,1,196.16,95a15.16,15.16,0,0,1,6.42,1.42,11.8,11.8,0,0,0,10.12,0,15.17,15.17,0,0,1,21.56,14.46,15.17,15.17,0,0,1-20.92,13.29,15.45,15.45,0,0,0-11.61.08,14.92,14.92,0,0,1-5.57,1.06,15.09,15.09,0,0,1-5.14-.9,14.88,14.88,0,0,0-10.15,0,15.27,15.27,0,0,1-9.54.26,14.94,14.94,0,0,0-8.83-.07,15.16,15.16,0,0,1-18.11-21.31,11.34,11.34,0,0,0-.47-10.61,15.16,15.16,0,0,1,.2-14.87,11,11,0,0,0,0-11,15.14,15.14,0,0,1-.33-14.76,11.7,11.7,0,0,0-.09-10.78A15,15,0,0,1,142,33.92a15.15,15.15,0,0,1,30.3.44,15,15,0,0,1-2,7.51,9.62,9.62,0,0,0-.09,9.61,14.34,14.34,0,0,1,.84,1.66,15,15,0,0,1,4.62-.72,15.31,15.31,0,0,1,3,.3,12,12,0,0,0,9.43-2.18,15.08,15.08,0,0,1,9-2.94h0.1a7.13,7.13,0,0,0,5.86-3,15.14,15.14,0,0,1,6.66-5.29,9.92,9.92,0,0,1,6.76-11.63,9.89,9.89,0,0,1,17.91-6.49A4.65,4.65,0,0,0,238.28,23h0a9.89,9.89,0,0,1,9.89,10.2A10,10,0,0,1,239.72,42.74Z"/><path class="cls-1" d="M346.83,60.26a13.47,13.47,0,0,1-13.37,15,13.63,13.63,0,0,1-1.79-.12,10.87,10.87,0,0,0-8.17,2.21,13.4,13.4,0,0,1-8.29,2.85,13.67,13.67,0,0,1-2.15-.17,1.23,1.23,0,0,0-1.36,1.63,13.38,13.38,0,0,1,.69,4.26V86a22.64,22.64,0,0,0,4.42,13.68,13.47,13.47,0,1,1-24.31,8q0-.5,0-1a18,18,0,0,0-4.14-12.39,13.43,13.43,0,0,1-2.47-4.9,1.34,1.34,0,0,0-2.1-.72,13.49,13.49,0,0,1-12.41,1.94,7.54,7.54,0,0,0-7.51,1.57,13.46,13.46,0,1,1-10.4-23.39,13.63,13.63,0,0,1,4.49.29,11.64,11.64,0,0,0,9.73-2,13.41,13.41,0,0,1,8.06-2.68q0.47,0,.93,0a1.65,1.65,0,0,0,1.8-1.63v0a13.48,13.48,0,0,1,.12-1.76A10.16,10.16,0,0,0,277.08,54q-0.26-.38-0.49-0.78a2.58,2.58,0,0,0-2.23-1.3h0a13.4,13.4,0,0,1-2.08-.16,5.46,5.46,0,0,0-4.19,1.06,13.46,13.46,0,0,1-21.57-12.15A13.46,13.46,0,0,1,262,28.79a5.6,5.6,0,0,0,4.27-1.09l0.25-.19a5.42,5.42,0,0,0,1.64-6.79A13.47,13.47,0,0,1,280.34,1.5a13.46,13.46,0,0,1,13.35,14.75,3.93,3.93,0,0,0,2.7,4.17l0.23,0.08a3.86,3.86,0,0,0,4.16-1.08,13.46,13.46,0,1,1,10,22.48,15.35,15.35,0,0,1-2.74-.37,5.22,5.22,0,0,0-6.3,4.44,4.5,4.5,0,0,0,0,.46v0c-0.43,5.37,3.07,10.87,8.08,8a10.87,10.87,0,0,1,5.43-1.14,13.65,13.65,0,0,1,1.8.12,10.2,10.2,0,0,0,7.89-2A13.46,13.46,0,0,1,346.83,60.26Z"/><path class="cls-1" d="M117.15,93.42a15.27,15.27,0,0,1-14.23,14.47,15.1,15.1,0,0,1-7.26-1.36,11.5,11.5,0,0,0-9.43.14,15.19,15.19,0,0,1-12,0,12,12,0,0,0-9.47,0,15.26,15.26,0,0,1-11.8,0,11.22,11.22,0,0,0-9.29.12,15.17,15.17,0,0,1-12.56.3,11.14,11.14,0,0,0-8.7.06,15.12,15.12,0,0,1-6.23,1.15A15.16,15.16,0,0,1,16.65,78a15.11,15.11,0,0,1,5.58,1.06,12.52,12.52,0,0,0,9.29,0A15.18,15.18,0,0,1,43,79.23a11.21,11.21,0,0,0,9.29-.11,15.09,15.09,0,0,1,6.61-1.52,17.58,17.58,0,0,1,2.64.25,4,4,0,0,0,4.31-5.37,15.2,15.2,0,0,1,.22-12.06A3.22,3.22,0,0,0,62.23,56a31.2,31.2,0,0,1-7.35,1.33,15.09,15.09,0,0,1-7-1.68,12.5,12.5,0,0,0-11.49,0,15.16,15.16,0,1,1-.19-27,13.21,13.21,0,0,0,11.86,0,15.17,15.17,0,0,1,13-.27,13.6,13.6,0,0,0,11.86-.29A15.16,15.16,0,0,1,93.3,48.56a11.67,11.67,0,0,0-.12,10.92,15.18,15.18,0,0,1-1.25,16.37,1.88,1.88,0,0,0,1.84,3A48.58,48.58,0,0,1,102,77.6,15.16,15.16,0,0,1,117.15,93.42Z"/><path class="cls-1" d="M225.44,105.51a15.17,15.17,0,0,1-20.92,13.29,15.44,15.44,0,0,0-11.6.08,15.19,15.19,0,0,1-10.71.16,14.89,14.89,0,0,0-10.15,0,15.24,15.24,0,0,1-9.54.26,15,15,0,0,0-8.83-.06,15.16,15.16,0,0,1-18.11-21.31,11.38,11.38,0,0,0-.47-10.61,15.16,15.16,0,0,1,.2-14.86,11,11,0,0,0,0-11A15.16,15.16,0,0,1,135,46.64a11.69,11.69,0,0,0-.09-10.78,15.11,15.11,0,0,1-1.66-7.35,15.15,15.15,0,0,1,30.3.44,15.08,15.08,0,0,1-2,7.51,9.62,9.62,0,0,0-.09,9.6,15,15,0,0,1,.84,1.66A15,15,0,0,1,166.9,47a15.27,15.27,0,0,1,3,.3,12,12,0,0,0,9.44-2.19,15.08,15.08,0,0,1,9-2.94h0.1a7.14,7.14,0,0,0,5.85-3,15.16,15.16,0,1,1,12.39,23.9h0a7.31,7.31,0,0,0-6,3.08,15.17,15.17,0,0,1-16.55,5.76,7.67,7.67,0,0,0-7.24,1.64,15.09,15.09,0,0,1-10,3.77h-0.54A2.7,2.7,0,0,0,163.58,80v0a15.13,15.13,0,0,1-1.13,5.74,2.9,2.9,0,0,0,3.15,3.94,9.06,9.06,0,0,1,1.3-.11,15.09,15.09,0,0,1,5.77,1.14,11.64,11.64,0,0,0,8.92,0,15.16,15.16,0,0,1,12.18.29,11.86,11.86,0,0,0,10.13,0A15.16,15.16,0,0,1,225.44,105.51Z"/><path class="cls-1" d="M442.73,20A15.27,15.27,0,0,1,428.3,34.44a15.11,15.11,0,0,1-7.12-1.4,11.64,11.64,0,0,0-9.74.09,15.19,15.19,0,0,1-11.93.21,11.8,11.8,0,0,0-9.38.33A15.1,15.1,0,0,1,383.05,35a15.16,15.16,0,0,1,.73-30.3,15.07,15.07,0,0,1,5.71,1.11,11,11,0,0,0,9-.14,15.18,15.18,0,0,1,13-.2,11.76,11.76,0,0,0,9.81,0A15.17,15.17,0,0,1,442.73,20Z"/><path class="cls-1" d="M457.89,54.41A15.15,15.15,0,0,1,433.79,66a2.54,2.54,0,0,0-3.35.29,14.9,14.9,0,0,1-3.76,2.84,1.74,1.74,0,0,0-.91,1.27,15.12,15.12,0,0,1-6.67,10.22,2.45,2.45,0,0,0-1,2.68,15.16,15.16,0,0,1-12,18.69,2.17,2.17,0,0,0-1.78,1.89,15.16,15.16,0,1,1-18.52-16.53,3.53,3.53,0,0,0,2.69-2.84,15.14,15.14,0,0,1,6.34-9.91A2.22,2.22,0,0,0,395,71a0.51,0.51,0,0,0-.27-0.13,15.08,15.08,0,0,1-8.18-2.39,6.58,6.58,0,0,0-7.58.21,15.15,15.15,0,1,1-1.9-25.2,9,9,0,0,0,9.38-.47,15.15,15.15,0,0,1,16.15-.25,8.75,8.75,0,0,0,9.06,0,15.18,15.18,0,0,1,13.82-1,9.26,9.26,0,0,0,8.83-.64A15.15,15.15,0,0,1,457.89,54.41Z"/><path class="cls-1" d="M582.9,73.47c3.69,8.68-.4,17.09-7.39,20.33a14.52,14.52,0,0,0-7.36,7.23,15.17,15.17,0,0,1-16,9,14.88,14.88,0,0,0-12,3.36,15.45,15.45,0,0,1-16.8,2.36,13.57,13.57,0,0,1-7-7,15.67,15.67,0,0,1,.11-13.42,10.4,10.4,0,0,0-.12-9,15.18,15.18,0,0,1,.37-13.64,9.25,9.25,0,0,0,0-8.76,15.19,15.19,0,0,1,0-14.33,9.43,9.43,0,0,0,.05-8.92,15.64,15.64,0,0,1-.41-13.91,13.64,13.64,0,0,1,7.13-7.09c11.09-4.75,21.76,3.26,21.76,13.76a15.1,15.1,0,0,1-1.9,7.35,8.91,8.91,0,0,0,0,8.6,15.19,15.19,0,0,1,.45,13.83,11.94,11.94,0,0,0,0,10.17,15.1,15.1,0,0,1,1.45,6.48v2.72a0.12,0.12,0,0,0,.19.1,15.15,15.15,0,0,1,4.11-2.07,8,8,0,0,0,5.15-5.17c2.57-8,11.67-13.16,21.06-9.13A15.79,15.79,0,0,1,582.9,73.47Z"/><path class="cls-1" d="M505.87,58.49a15,15,0,0,1-5.62,11.7,10.88,10.88,0,0,0-4.2,9.52q0.07,0.74.07,1.5a15,15,0,0,1-11.89,14.66,2.7,2.7,0,0,0-2.13,2.82v0.13A15,15,0,1,1,463.3,85.06a3.91,3.91,0,0,0,2.84-3.82v0a15,15,0,0,1,5.64-11.72A10.76,10.76,0,0,0,476,60a15.18,15.18,0,0,1-.08-1.55,14.91,14.91,0,0,1,2.46-8.23,10.08,10.08,0,0,0,.7-9.84,15,15,0,1,1,26.31,1.31,11.67,11.67,0,0,0-.72,10.78A14.94,14.94,0,0,1,505.87,58.49Z"/><path class="cls-1" d="M231.31,39.54A9.9,9.9,0,0,1,212.25,42a1.28,1.28,0,0,0-.79-0.45A9.79,9.79,0,0,1,201,34.11a9.91,9.91,0,0,1,19-5.48,9.63,9.63,0,0,1,1.43-.1A9.9,9.9,0,0,1,231.31,39.54Z"/><path class="cls-1" d="M239.39,27.83a10,10,0,0,1-9.5,9.59,9.87,9.87,0,0,1-8.21-3.82,5.67,5.67,0,0,0-4.36-2.19h-0.09a9.9,9.9,0,1,1,8.42-15.66,4.64,4.64,0,0,0,3.83,1.88h0A9.9,9.9,0,0,1,239.39,27.83Z"/><path class="cls-2" d="M20.38,43.87c0,4.65,2.4,8.42,5.36,8.42,1.48,0,5.43-.2,6.4-1.72a14.16,14.16,0,0,0,1.57-6.7c0-1.9-.4-6.64-1.08-8.05-1-2-5.14-3-6.88-3C22.78,32.84,20.38,39.22,20.38,43.87Z"/><path class="cls-2" d="M147.15,18.88c-4.19.13-7.47,4-7.33,8.71,0.07,2.34.44,8.58,1.86,10.08A8.71,8.71,0,0,0,147.8,40c1.72-.05,6-0.82,7.21-1.93,1.78-1.6,2.43-8.21,2.35-11C157.21,22.38,151.34,18.75,147.15,18.88Z"/><path class="cls-2" d="M317.82,25c-0.85-6.21-4.87-5.12-8.37-3.95-1.75.59-6.36,2.3-7.13,3.78a7.64,7.64,0,0,0-.23,5.46c0.46,1.37,2.09,4.63,3.23,5.38,1.65,1.08,6.78.11,8.85-.59C317.67,33.86,319.09,34.23,317.82,25Z"/><path class="cls-2" d="M373.8,21.08c0,4.07,2.88,7.36,6.42,7.36,1.77,0,6.51-.17,7.67-1.51a9.79,9.79,0,0,0,1.88-5.86c0-1.67-.48-5.81-1.3-7-1.17-1.78-6.16-2.6-8.25-2.6C376.67,11.44,373.8,17,373.8,21.08Z"/><path class="cls-2" d="M383.47,109.72c3.58,3.12,8,3.88,10,1.68,1-1.1,3.36-4.16,2.81-5.9a14.92,14.92,0,0,0-4.14-5.66c-1.47-1.28-5.38-4.16-6.9-4.61-2.2-.64-5.61,2.81-6.75,4.11C376.53,101.53,379.89,106.59,383.47,109.72Z"/><path class="cls-2" d="M490.56,25.67c-4.74.27-8.59,2.36-8.59,5.27,0,1.45.21,5.33,1.76,6.28a14.9,14.9,0,0,0,6.84,1.54c1.94,0,6.78-.4,8.22-1.07,2.07-1,3-5.05,3-6.77C501.82,28,501.82,25,490.56,25.67Z"/><path class="cls-2" d="M574.06,72c-3.57-3.29-5.11-4.18-7.15-2-1,1.1-5.58,4.18-5.08,6s1.28,4.27,3.06,5.92c1.46,1.35,5.37,4.41,6.92,4.9,2.23,0.71,5.82-1.72,7-3C580.88,81.57,577.63,75.26,574.06,72Z"/></svg>